<mxfile host="app.diagrams.net" modified="2023-05-02T15:29:52.158Z" agent="Mozilla/5.0 (X11; Ubuntu; Linux x86_64; rv:109.0) Gecko/20100101 Firefox/112.0" etag="ErU2jOiNMI0vjoHFsRRE" version="21.2.4" type="device">
  <diagram name="Page-1" id="b3_rmUjKcA8r_ARUdAtH">
    <mxGraphModel dx="3033" dy="2434" grid="1" gridSize="10" guides="1" tooltips="1" connect="1" arrows="1" fold="1" page="1" pageScale="1" pageWidth="827" pageHeight="1169" math="0" shadow="0">
      <root>
        <mxCell id="0" />
        <mxCell id="1" parent="0" />
        <mxCell id="243QyRulBXpM2tCjIqUp-84" value="&lt;div&gt;L&#39;utilisateur se connecte avec ses identifiants&lt;br&gt;&lt;/div&gt;" style="rounded=1;whiteSpace=wrap;html=1;hachureGap=4;fontFamily=Architects Daughter;fontSource=https%3A%2F%2Ffonts.googleapis.com%2Fcss%3Ffamily%3DArchitects%2BDaughter;fontSize=20;sketch=1;curveFitting=1;jiggle=2;fillColor=#dae8fc;strokeColor=#6c8ebf;" vertex="1" parent="1">
          <mxGeometry x="233" y="-360" width="280" height="80" as="geometry" />
        </mxCell>
        <mxCell id="243QyRulBXpM2tCjIqUp-85" value="Le token d&#39;accès n&#39;est plus valide" style="rounded=1;whiteSpace=wrap;html=1;hachureGap=4;fontFamily=Architects Daughter;fontSource=https%3A%2F%2Ffonts.googleapis.com%2Fcss%3Ffamily%3DArchitects%2BDaughter;fontSize=20;sketch=1;curveFitting=1;jiggle=2;" vertex="1" parent="1">
          <mxGeometry x="240" y="320" width="280" height="80" as="geometry" />
        </mxCell>
        <mxCell id="243QyRulBXpM2tCjIqUp-87" value="" style="endArrow=classic;html=1;rounded=1;hachureGap=4;fontFamily=Architects Daughter;fontSource=https%3A%2F%2Ffonts.googleapis.com%2Fcss%3Ffamily%3DArchitects%2BDaughter;fontSize=16;exitX=0.53;exitY=1.005;exitDx=0;exitDy=0;entryX=0.526;entryY=0.029;entryDx=0;entryDy=0;exitPerimeter=0;entryPerimeter=0;sketch=1;curveFitting=1;jiggle=2;" edge="1" parent="1" source="243QyRulBXpM2tCjIqUp-84" target="243QyRulBXpM2tCjIqUp-119">
          <mxGeometry width="50" height="50" relative="1" as="geometry">
            <mxPoint x="640" y="430" as="sourcePoint" />
            <mxPoint x="380" y="-60" as="targetPoint" />
          </mxGeometry>
        </mxCell>
        <mxCell id="243QyRulBXpM2tCjIqUp-88" value="L&#39;utilisateur utilise son token de rafraîchissement pour demander un nouveau token d&#39;accès" style="rounded=1;whiteSpace=wrap;html=1;hachureGap=4;fontFamily=Architects Daughter;fontSource=https%3A%2F%2Ffonts.googleapis.com%2Fcss%3Ffamily%3DArchitects%2BDaughter;fontSize=20;sketch=1;curveFitting=1;jiggle=2;fillColor=#dae8fc;strokeColor=#6c8ebf;" vertex="1" parent="1">
          <mxGeometry x="240" y="480" width="280" height="120" as="geometry" />
        </mxCell>
        <mxCell id="243QyRulBXpM2tCjIqUp-89" value="" style="endArrow=classic;html=1;rounded=1;hachureGap=4;fontFamily=Architects Daughter;fontSource=https%3A%2F%2Ffonts.googleapis.com%2Fcss%3Ffamily%3DArchitects%2BDaughter;fontSize=16;exitX=0.5;exitY=1;exitDx=0;exitDy=0;exitPerimeter=0;entryX=0.5;entryY=0;entryDx=0;entryDy=0;sketch=1;curveFitting=1;jiggle=2;" edge="1" parent="1" source="243QyRulBXpM2tCjIqUp-85" target="243QyRulBXpM2tCjIqUp-88">
          <mxGeometry width="50" height="50" relative="1" as="geometry">
            <mxPoint x="360" y="440" as="sourcePoint" />
            <mxPoint x="367" y="490" as="targetPoint" />
          </mxGeometry>
        </mxCell>
        <mxCell id="243QyRulBXpM2tCjIqUp-91" value="Est-ce que l&#39;utilisateur existe toujours" style="rounded=1;whiteSpace=wrap;html=1;hachureGap=4;fontFamily=Architects Daughter;fontSource=https%3A%2F%2Ffonts.googleapis.com%2Fcss%3Ffamily%3DArchitects%2BDaughter;fontSize=20;sketch=1;curveFitting=1;jiggle=2;fillColor=#ffe6cc;strokeColor=#d79b00;" vertex="1" parent="1">
          <mxGeometry x="240" y="1040" width="280" height="120" as="geometry" />
        </mxCell>
        <mxCell id="243QyRulBXpM2tCjIqUp-94" value="L&#39;API d&#39;authentification lui redonne un token d&#39;accès" style="rounded=1;whiteSpace=wrap;html=1;hachureGap=4;fontFamily=Architects Daughter;fontSource=https%3A%2F%2Ffonts.googleapis.com%2Fcss%3Ffamily%3DArchitects%2BDaughter;fontSize=20;sketch=1;curveFitting=1;jiggle=2;fillColor=#e1d5e7;strokeColor=#9673a6;" vertex="1" parent="1">
          <mxGeometry x="840" y="1040" width="280" height="120" as="geometry" />
        </mxCell>
        <mxCell id="243QyRulBXpM2tCjIqUp-95" value="" style="endArrow=classic;html=1;rounded=0;exitX=1;exitY=0.5;exitDx=0;exitDy=0;entryX=0;entryY=0.5;entryDx=0;entryDy=0;sketch=1;curveFitting=1;jiggle=2;" edge="1" parent="1" source="243QyRulBXpM2tCjIqUp-91" target="243QyRulBXpM2tCjIqUp-97">
          <mxGeometry width="50" height="50" relative="1" as="geometry">
            <mxPoint x="640" y="750" as="sourcePoint" />
            <mxPoint x="580" y="860" as="targetPoint" />
          </mxGeometry>
        </mxCell>
        <mxCell id="243QyRulBXpM2tCjIqUp-99" value="" style="endArrow=classic;html=1;rounded=0;entryX=0;entryY=0.5;entryDx=0;entryDy=0;sketch=1;curveFitting=1;jiggle=2;" edge="1" parent="1" source="243QyRulBXpM2tCjIqUp-97" target="243QyRulBXpM2tCjIqUp-94">
          <mxGeometry width="50" height="50" relative="1" as="geometry">
            <mxPoint x="680" y="860" as="sourcePoint" />
            <mxPoint x="1150" y="1030" as="targetPoint" />
            <Array as="points" />
          </mxGeometry>
        </mxCell>
        <mxCell id="243QyRulBXpM2tCjIqUp-100" value="&lt;font style=&quot;font-size: 24px;&quot; face=&quot;Architects daughter&quot;&gt;Non&lt;/font&gt;" style="rhombus;whiteSpace=wrap;html=1;strokeWidth=3;sketch=1;curveFitting=1;jiggle=2;fillColor=#f8cecc;strokeColor=#b85450;" vertex="1" parent="1">
          <mxGeometry x="-40" y="1060" width="80" height="80" as="geometry" />
        </mxCell>
        <mxCell id="243QyRulBXpM2tCjIqUp-97" value="&lt;font style=&quot;font-size: 24px;&quot; face=&quot;Architects daughter&quot;&gt;Oui&lt;/font&gt;" style="rhombus;whiteSpace=wrap;html=1;strokeWidth=3;sketch=1;curveFitting=1;jiggle=2;fillColor=#d5e8d4;strokeColor=#82b366;" vertex="1" parent="1">
          <mxGeometry x="650" y="1060" width="80" height="80" as="geometry" />
        </mxCell>
        <mxCell id="243QyRulBXpM2tCjIqUp-102" value="" style="endArrow=classic;html=1;rounded=0;exitX=0;exitY=0.5;exitDx=0;exitDy=0;entryX=1;entryY=0.5;entryDx=0;entryDy=0;sketch=1;curveFitting=1;jiggle=2;" edge="1" parent="1" source="243QyRulBXpM2tCjIqUp-91" target="243QyRulBXpM2tCjIqUp-100">
          <mxGeometry width="50" height="50" relative="1" as="geometry">
            <mxPoint x="90" y="859.41" as="sourcePoint" />
            <mxPoint x="170" y="780" as="targetPoint" />
          </mxGeometry>
        </mxCell>
        <mxCell id="243QyRulBXpM2tCjIqUp-103" value="" style="endArrow=classic;html=1;rounded=0;exitX=0.548;exitY=0.014;exitDx=0;exitDy=0;exitPerimeter=0;entryX=1;entryY=0.5;entryDx=0;entryDy=0;sketch=1;curveFitting=1;jiggle=2;" edge="1" parent="1" source="243QyRulBXpM2tCjIqUp-94" target="243QyRulBXpM2tCjIqUp-85">
          <mxGeometry width="50" height="50" relative="1" as="geometry">
            <mxPoint x="640" y="750" as="sourcePoint" />
            <mxPoint x="1010" y="110" as="targetPoint" />
            <Array as="points">
              <mxPoint x="1000" y="360" />
            </Array>
          </mxGeometry>
        </mxCell>
        <mxCell id="243QyRulBXpM2tCjIqUp-104" value="Est-ce que le token de rafraichissement est valide ? " style="rounded=1;whiteSpace=wrap;html=1;hachureGap=4;fontFamily=Architects Daughter;fontSource=https%3A%2F%2Ffonts.googleapis.com%2Fcss%3Ffamily%3DArchitects%2BDaughter;fontSize=20;sketch=1;curveFitting=1;jiggle=2;fillColor=#ffe6cc;strokeColor=#d79b00;" vertex="1" parent="1">
          <mxGeometry x="240" y="680" width="280" height="120" as="geometry" />
        </mxCell>
        <mxCell id="243QyRulBXpM2tCjIqUp-107" value="&lt;font style=&quot;font-size: 24px;&quot; face=&quot;Architects daughter&quot;&gt;Non&lt;/font&gt;" style="rhombus;whiteSpace=wrap;html=1;strokeWidth=3;sketch=1;curveFitting=1;jiggle=2;fillColor=#f8cecc;strokeColor=#b85450;" vertex="1" parent="1">
          <mxGeometry x="-40" y="700" width="80" height="80" as="geometry" />
        </mxCell>
        <mxCell id="243QyRulBXpM2tCjIqUp-108" value="" style="endArrow=classic;html=1;rounded=0;exitX=0;exitY=0.5;exitDx=0;exitDy=0;entryX=1;entryY=0.5;entryDx=0;entryDy=0;sketch=1;curveFitting=1;jiggle=2;" edge="1" parent="1">
          <mxGeometry width="50" height="50" relative="1" as="geometry">
            <mxPoint x="240" y="739.17" as="sourcePoint" />
            <mxPoint x="40" y="739.17" as="targetPoint" />
          </mxGeometry>
        </mxCell>
        <mxCell id="243QyRulBXpM2tCjIqUp-109" value="" style="endArrow=classic;html=1;rounded=0;entryX=0.5;entryY=0;entryDx=0;entryDy=0;exitX=0.5;exitY=1;exitDx=0;exitDy=0;sketch=1;curveFitting=1;jiggle=2;" edge="1" parent="1" source="243QyRulBXpM2tCjIqUp-88" target="243QyRulBXpM2tCjIqUp-104">
          <mxGeometry width="50" height="50" relative="1" as="geometry">
            <mxPoint x="150" y="580" as="sourcePoint" />
            <mxPoint x="200" y="530" as="targetPoint" />
          </mxGeometry>
        </mxCell>
        <mxCell id="243QyRulBXpM2tCjIqUp-110" value="" style="endArrow=classic;html=1;rounded=0;entryX=0;entryY=0.5;entryDx=0;entryDy=0;exitX=0;exitY=0.5;exitDx=0;exitDy=0;sketch=1;curveFitting=1;jiggle=2;" edge="1" parent="1" source="243QyRulBXpM2tCjIqUp-107" target="243QyRulBXpM2tCjIqUp-84">
          <mxGeometry width="50" height="50" relative="1" as="geometry">
            <mxPoint x="-200" y="740" as="sourcePoint" />
            <mxPoint x="-10" y="70" as="targetPoint" />
            <Array as="points">
              <mxPoint x="-200" y="740" />
              <mxPoint x="-190" y="-320" />
            </Array>
          </mxGeometry>
        </mxCell>
        <mxCell id="243QyRulBXpM2tCjIqUp-112" value="&lt;font style=&quot;font-size: 24px;&quot; face=&quot;Architects daughter&quot;&gt;Oui&lt;/font&gt;" style="rhombus;whiteSpace=wrap;html=1;strokeWidth=3;sketch=1;curveFitting=1;jiggle=2;fillColor=#d5e8d4;strokeColor=#82b366;" vertex="1" parent="1">
          <mxGeometry x="333" y="880" width="80" height="80" as="geometry" />
        </mxCell>
        <mxCell id="243QyRulBXpM2tCjIqUp-113" value="" style="endArrow=classic;html=1;rounded=0;entryX=0.5;entryY=0;entryDx=0;entryDy=0;exitX=0.5;exitY=1;exitDx=0;exitDy=0;sketch=1;curveFitting=1;jiggle=2;" edge="1" parent="1">
          <mxGeometry width="50" height="50" relative="1" as="geometry">
            <mxPoint x="372.17" y="800" as="sourcePoint" />
            <mxPoint x="372.17" y="880" as="targetPoint" />
          </mxGeometry>
        </mxCell>
        <mxCell id="243QyRulBXpM2tCjIqUp-114" value="" style="endArrow=classic;html=1;rounded=0;entryX=0.5;entryY=0;entryDx=0;entryDy=0;exitX=0.5;exitY=1;exitDx=0;exitDy=0;sketch=1;curveFitting=1;jiggle=2;" edge="1" parent="1">
          <mxGeometry width="50" height="50" relative="1" as="geometry">
            <mxPoint x="372.17" y="960" as="sourcePoint" />
            <mxPoint x="372.17" y="1040" as="targetPoint" />
          </mxGeometry>
        </mxCell>
        <mxCell id="243QyRulBXpM2tCjIqUp-115" value="L&#39;utilisateur n&#39;a pas accès au système." style="rounded=1;whiteSpace=wrap;html=1;hachureGap=4;fontFamily=Architects Daughter;fontSource=https%3A%2F%2Ffonts.googleapis.com%2Fcss%3Ffamily%3DArchitects%2BDaughter;fontSize=20;sketch=1;curveFitting=1;jiggle=2;" vertex="1" parent="1">
          <mxGeometry x="760" y="-200" width="280" height="80" as="geometry" />
        </mxCell>
        <mxCell id="243QyRulBXpM2tCjIqUp-118" value="&lt;div&gt;L&#39;API lui envoi 2 tokens :&lt;/div&gt;&lt;div&gt;accès et rafraîchissement&lt;/div&gt;" style="rounded=1;whiteSpace=wrap;html=1;hachureGap=4;fontFamily=Architects Daughter;fontSource=https%3A%2F%2Ffonts.googleapis.com%2Fcss%3Ffamily%3DArchitects%2BDaughter;fontSize=20;sketch=1;curveFitting=1;jiggle=2;fillColor=#e1d5e7;strokeColor=#9673a6;" vertex="1" parent="1">
          <mxGeometry x="240" y="160" width="280" height="80" as="geometry" />
        </mxCell>
        <mxCell id="243QyRulBXpM2tCjIqUp-119" value="Est-ce que ses identifiants sont valides ? " style="rounded=1;whiteSpace=wrap;html=1;hachureGap=4;fontFamily=Architects Daughter;fontSource=https%3A%2F%2Ffonts.googleapis.com%2Fcss%3Ffamily%3DArchitects%2BDaughter;fontSize=20;sketch=1;curveFitting=1;jiggle=2;fillColor=#ffe6cc;strokeColor=#d79b00;" vertex="1" parent="1">
          <mxGeometry x="233" y="-200" width="280" height="80" as="geometry" />
        </mxCell>
        <mxCell id="243QyRulBXpM2tCjIqUp-120" value="&lt;font style=&quot;font-size: 24px;&quot; face=&quot;Architects daughter&quot;&gt;Non&lt;/font&gt;" style="rhombus;whiteSpace=wrap;html=1;strokeWidth=3;sketch=1;curveFitting=1;jiggle=2;fillColor=#f8cecc;strokeColor=#b85450;" vertex="1" parent="1">
          <mxGeometry x="600" y="-200" width="80" height="80" as="geometry" />
        </mxCell>
        <mxCell id="243QyRulBXpM2tCjIqUp-121" value="" style="endArrow=classic;html=1;rounded=1;hachureGap=4;fontFamily=Architects Daughter;fontSource=https%3A%2F%2Ffonts.googleapis.com%2Fcss%3Ffamily%3DArchitects%2BDaughter;fontSize=16;exitX=1;exitY=0.5;exitDx=0;exitDy=0;entryX=0;entryY=0.5;entryDx=0;entryDy=0;sketch=1;curveFitting=1;jiggle=2;" edge="1" parent="1" source="243QyRulBXpM2tCjIqUp-119" target="243QyRulBXpM2tCjIqUp-120">
          <mxGeometry width="50" height="50" relative="1" as="geometry">
            <mxPoint x="640" y="-30" as="sourcePoint" />
            <mxPoint x="640" y="130" as="targetPoint" />
          </mxGeometry>
        </mxCell>
        <mxCell id="243QyRulBXpM2tCjIqUp-123" value="" style="endArrow=classic;html=1;rounded=1;hachureGap=4;fontFamily=Architects Daughter;fontSource=https%3A%2F%2Ffonts.googleapis.com%2Fcss%3Ffamily%3DArchitects%2BDaughter;fontSize=16;exitX=1;exitY=0.5;exitDx=0;exitDy=0;entryX=0;entryY=0.5;entryDx=0;entryDy=0;sketch=1;curveFitting=1;jiggle=2;" edge="1" parent="1" source="243QyRulBXpM2tCjIqUp-120" target="243QyRulBXpM2tCjIqUp-115">
          <mxGeometry width="50" height="50" relative="1" as="geometry">
            <mxPoint x="730" y="-60.83" as="sourcePoint" />
            <mxPoint x="830" y="-61" as="targetPoint" />
          </mxGeometry>
        </mxCell>
        <mxCell id="243QyRulBXpM2tCjIqUp-124" value="" style="endArrow=classic;html=1;rounded=0;exitX=0.526;exitY=1.04;exitDx=0;exitDy=0;entryX=0.5;entryY=0;entryDx=0;entryDy=0;exitPerimeter=0;sketch=1;curveFitting=1;jiggle=2;" edge="1" parent="1" source="243QyRulBXpM2tCjIqUp-119" target="243QyRulBXpM2tCjIqUp-128">
          <mxGeometry width="50" height="50" relative="1" as="geometry">
            <mxPoint x="372.17" y="20" as="sourcePoint" />
            <mxPoint x="370" as="targetPoint" />
          </mxGeometry>
        </mxCell>
        <mxCell id="243QyRulBXpM2tCjIqUp-128" value="&lt;font style=&quot;font-size: 24px;&quot; face=&quot;Architects daughter&quot;&gt;Oui&lt;/font&gt;" style="rhombus;whiteSpace=wrap;html=1;strokeWidth=3;sketch=1;curveFitting=1;jiggle=2;fillColor=#d5e8d4;strokeColor=#82b366;" vertex="1" parent="1">
          <mxGeometry x="340" width="80" height="80" as="geometry" />
        </mxCell>
        <mxCell id="243QyRulBXpM2tCjIqUp-129" value="" style="endArrow=classic;html=1;rounded=0;exitX=0.5;exitY=1;exitDx=0;exitDy=0;entryX=0.501;entryY=-0.067;entryDx=0;entryDy=0;entryPerimeter=0;sketch=1;curveFitting=1;jiggle=2;" edge="1" parent="1" source="243QyRulBXpM2tCjIqUp-128" target="243QyRulBXpM2tCjIqUp-118">
          <mxGeometry width="50" height="50" relative="1" as="geometry">
            <mxPoint x="372.41" y="90" as="sourcePoint" />
            <mxPoint x="370" y="160" as="targetPoint" />
          </mxGeometry>
        </mxCell>
        <mxCell id="243QyRulBXpM2tCjIqUp-131" value="" style="endArrow=classic;html=1;rounded=0;entryX=0.5;entryY=0;entryDx=0;entryDy=0;sketch=1;curveFitting=1;jiggle=2;" edge="1" parent="1" source="243QyRulBXpM2tCjIqUp-118" target="243QyRulBXpM2tCjIqUp-85">
          <mxGeometry width="50" height="50" relative="1" as="geometry">
            <mxPoint x="372.41" y="250" as="sourcePoint" />
            <mxPoint x="372.41" y="330" as="targetPoint" />
          </mxGeometry>
        </mxCell>
        <mxCell id="243QyRulBXpM2tCjIqUp-132" value="" style="endArrow=classic;html=1;rounded=0;exitX=0;exitY=0.5;exitDx=0;exitDy=0;sketch=1;curveFitting=1;jiggle=2;" edge="1" parent="1">
          <mxGeometry width="50" height="50" relative="1" as="geometry">
            <mxPoint y="1140" as="sourcePoint" />
            <mxPoint x="1040" y="-160" as="targetPoint" />
            <Array as="points">
              <mxPoint y="1240" />
              <mxPoint x="1200" y="1240" />
              <mxPoint x="1200" y="-160" />
            </Array>
          </mxGeometry>
        </mxCell>
      </root>
    </mxGraphModel>
  </diagram>
</mxfile>
